<?xml version="1.0" standalone="no"?>
<!DOCTYPE svg PUBLIC "-//W3C//DTD SVG 20010904//EN"
 "http://www.w3.org/TR/2001/REC-SVG-20010904/DTD/svg10.dtd">
<svg version="1.0" xmlns="http://www.w3.org/2000/svg"
 width="700.000000pt" height="700.000000pt" viewBox="0 0 700.000000 700.000000"
 preserveAspectRatio="xMidYMid meet">
<metadata>
Created by potrace 1.14, written by Peter Selinger 2001-2017
</metadata>
<g transform="translate(0.000000,700.000000) scale(0.100000,-0.100000)"
fill="#000000" stroke="none">
<path d="M175 6120 c-70 -15 -131 -66 -159 -134 -15 -35 -16 -258 -16 -2391 0
-2269 1 -2355 19 -2407 31 -89 56 -130 113 -185 64 -60 141 -102 218 -118 41
-8 900 -11 3270 -10 3052 1 3217 2 3251 18 45 22 83 61 108 112 18 36 20 58
18 206 -2 166 -2 166 -32 215 -20 31 -47 58 -75 74 l-45 25 -3095 5 -3094 5
-1 2215 0 2215 -28 47 c-28 48 -63 79 -113 99 -31 12 -289 19 -339 9z"/>
<path d="M5364 5670 c-39 -17 -78 -55 -101 -97 -10 -18 -12 -362 -10 -1645 l2
-1623 25 -33 c14 -19 43 -45 66 -58 39 -23 48 -24 227 -24 107 0 198 5 214 11
37 14 81 56 102 99 17 33 18 128 17 1647 l-1 1611 -30 44 c-53 76 -85 85 -293
86 -151 0 -186 -3 -218 -18z"/>
<path d="M2755 5243 c-32 -8 -81 -50 -106 -90 l-24 -38 0 -1385 c1 -762 4
-1397 8 -1413 11 -39 72 -104 111 -117 38 -12 369 -17 406 -5 55 17 115 80
127 135 2 8 4 637 4 1396 1 1506 5 1400 -54 1466 -45 51 -79 58 -274 57 -98
-1 -187 -4 -198 -6z"/>
<path d="M4104 4374 c-5 -1 -21 -5 -36 -8 -15 -4 -44 -20 -63 -38 -73 -63 -68
13 -68 -1043 1 -614 4 -959 11 -976 16 -39 58 -85 96 -103 53 -25 387 -26 439
-1 47 22 93 76 104 124 5 20 8 457 7 971 -1 1014 2 958 -53 1017 -48 50 -74
56 -257 58 -95 0 -176 0 -180 -1z"/>
<path d="M1422 3484 c-57 -29 -100 -89 -106 -148 -3 -28 -5 -265 -5 -526 1
-451 2 -477 21 -517 26 -55 96 -103 152 -104 23 0 111 0 196 1 150 1 156 2
199 28 28 17 53 43 68 72 l24 45 -3 521 -3 520 -24 36 c-13 19 -40 46 -59 59
-34 23 -43 24 -231 27 -166 2 -201 0 -229 -14z"/>
</g>
</svg>
